<svg height="512pt" viewBox="-9 0 511 512" width="512pt" xmlns="http://www.w3.org/2000/svg"><path d="m484.296875 364.378906c-.648437 0-1.308594-.070312-1.949219-.199218-.640625-.132813-1.269531-.320313-1.871094-.570313-.609374-.25-1.1875-.5625-1.726562-.921875-.550781-.359375-1.0625-.777344-1.523438-1.238281-1.859374-1.859375-2.929687-4.441407-2.929687-7.070313 0-.648437.070313-1.308594.199219-1.960937.132812-.628907.320312-1.257813.570312-1.871094.25-.597656.5625-1.179687.921875-1.71875.359375-.550781.777344-1.058594 1.238281-1.519531.460938-.460938.96875-.878906 1.519532-1.25.542968-.359375 1.121094-.660156 1.730468-.910156.601563-.25 1.230469-.449219 1.871094-.578126 1.289063-.261718 2.617188-.261718 3.910156 0 .628907.128907 1.257813.328126 1.867188.578126.601562.25 1.183594.550781 1.722656.910156.550782.371094 1.058594.789062 1.519532 1.25.460937.460937.878906.96875 1.25 1.519531.359374.539063.667968 1.121094.917968 1.71875.25.613281.441406 1.242187.570313 1.871094.132812.652343.191406 1.3125.191406 1.960937 0 2.628906-1.070313 5.210938-2.929687 7.070313-.460938.460937-.972657.878906-1.519532 1.238281-.542968.359375-1.121094.671875-1.722656.921875-.609375.25-1.238281.4375-1.871094.570313-.644531.128906-1.304687.199218-1.957031.199218zm0 0"/><path d="m10.5 364.378906c-2.632812 0-5.210938-1.070312-7.070312-2.929687-.460938-.460938-.878907-.96875-1.25-1.519531-.359376-.542969-.671876-1.121094-.921876-1.730469-.25-.601563-.4375-1.230469-.566406-1.871094-.132812-.640625-.191406-1.300781-.191406-1.949219 0-.648437.0625-1.308594.191406-1.960937.128906-.628907.316406-1.257813.566406-1.871094.25-.597656.5625-1.179687.921876-1.71875.371093-.550781.789062-1.058594 1.25-1.519531.460937-.460938.96875-.878906 1.519531-1.25.539062-.359375 1.121093-.671875 1.722656-.921875.609375-.25 1.238281-.4375 1.867187-.570313 1.300782-.257812 2.621094-.257812 3.910157 0 .640625.132813 1.269531.320313 1.871093.570313.609376.25 1.1875.5625 1.730469.921875.550781.371094 1.058594.789062 1.519531 1.25.460938.460937.878907.96875 1.238282 1.519531.359375.539063.671875 1.121094.921875 1.71875.25.613281.4375 1.242187.570312 1.871094.128907.652343.199219 1.3125.199219 1.960937 0 .648438-.070312 1.308594-.199219 1.949219-.132812.640625-.320312 1.269531-.570312 1.871094-.25.609375-.5625 1.1875-.921875 1.730469-.359375.550781-.777344 1.058593-1.238282 1.519531-.460937.460937-.96875.878906-1.519531 1.238281-.542969.359375-1.121093.671875-1.730469.921875-.601562.25-1.230468.449219-1.871093.570313-.640625.128906-1.300781.199218-1.949219.199218zm0 0"/><path d="m441 344.375h-59.628906l-67.609375-137.246094c4.605469-9.601562 7.1875-20.351562 7.1875-31.6875 0-31.328125-19.699219-58.144531-47.363281-68.71875v-21.238281h1.292968c5.523438 0 10-4.480469 10-10v-65.484375c0-5.523438-4.476562-10-10-10h-54.960937c-5.523438 0-10 4.476562-10 10v65.484375c0 5.519531 4.476562 10 10 10h1.292969v21.238281c-27.664063 10.574219-47.363282 37.390625-47.363282 68.71875 0 11.339844 2.582032 22.085938 7.1875 31.6875l-67.609375 137.25h-59.628906c-5.519531 0-10 4.476563-10 10 0 5.523438 4.480469 10 10 10h49.777344l-18.691407 37.945313c-6.378906 13.046875-7.296874 27.800781-2.578124 41.539062 3.617187 10.527344 10.210937 19.496094 18.96875 25.984375l-13.574219 27.757813c-2.425781 4.960937-.371094 10.949219 4.589843 13.375 1.414063.691406 2.910157 1.019531 4.386719 1.019531 3.699219 0 7.253907-2.0625 8.988281-5.609375l69.761719-142.015625h40.796875v3.347656c0 17.1875 13.988282 31.167969 31.175782 31.167969 17.191406 0 31.175781-13.980469 31.175781-31.167969v-3.347656h40.800781l69.757812 142.015625c1.734376 3.546875 5.289063 5.609375 8.988282 5.609375 1.476562 0 2.972656-.328125 4.386718-1.019531 4.960938-2.425781 7.015626-8.414063 4.589844-13.375l-13.574218-27.757813c8.761718-6.488281 15.355468-15.457031 18.96875-25.984375 4.71875-13.738281 3.804687-28.492187-2.589844-41.566406l-18.679688-37.917969h49.777344c5.523438 0 10-4.476562 10-10 0-5.523437-4.476562-10.003906-10-10.003906zm-211.082031-324.375h34.960937v45.484375h-34.960937zm23.667969 65.484375v16.683594c-2.039063-.171875-4.105469-.257813-6.1875-.257813-2.085938 0-4.148438.085938-6.1875.257813v-16.683594zm-6.1875 36.425781c29.527343 0 53.550781 24.011719 53.550781 53.53125 0 29.515625-24.023438 53.53125-53.550781 53.53125-29.527344 0-53.550782-24.015625-53.550782-53.53125 0-29.519531 24.023438-53.53125 53.550782-53.53125zm-137.09375 329.46875c-4.097657-3.800781-7.21875-8.578125-9.085938-14.011718-2.980469-8.683594-2.402344-18.007813 1.617188-26.230469l91.199218-185.144531c5.703125 6.015624 12.410156 11.070312 19.851563 14.894531zm148.269531-83.65625c0 6.160156-5.011719 11.167969-11.175781 11.167969-6.160157 0-11.175782-5.007813-11.175782-11.167969v-26.691406c0-6.160156 5.015625-11.167969 11.175782-11.167969 6.164062 0 11.175781 5.007813 11.175781 11.167969zm20-23.347656v-3.34375c0-17.1875-13.984375-31.167969-31.175781-31.167969-17.1875 0-31.175782 13.980469-31.175782 31.167969v3.34375h-30.960937l47.640625-96.835938c4.6875.9375 9.535156 1.433594 14.496094 1.433594 4.960937 0 9.808593-.496094 14.496093-1.433594l47.636719 96.835938zm113.375 66.734375c4.03125 8.25 4.609375 17.574219 1.628906 26.257813-1.867187 5.433593-4.988281 10.210937-9.082031 14.011718l-103.585938-210.492187c7.441406-3.824219 14.148438-8.878907 19.851563-14.894531zm0 0"/><path d="m232.53125 185.441406h4.867188v4.863282c0 5.523437 4.476562 10 10 10 5.523437 0 10-4.476563 10-10v-4.863282h4.867187c5.523437 0 10-4.476562 10-10 0-5.523437-4.476563-10-10-10h-4.867187v-4.863281c0-5.523437-4.476563-10-10-10-5.523438 0-10 4.476563-10 10v4.863281h-4.867188c-5.523438 0-10 4.476563-10 10 0 5.523438 4.476562 10 10 10zm0 0"/></svg>