<?xml version="1.0" encoding="utf-8"?>
<!-- Generator: Adobe Illustrator 21.0.0, SVG Export Plug-In . SVG Version: 6.00 Build 0)  -->
<svg version="1.1" id="Layer_1" xmlns="http://www.w3.org/2000/svg" xmlns:xlink="http://www.w3.org/1999/xlink" x="0px" y="0px"
	 viewBox="0 0 512 512" style="enable-background:new 0 0 512 512;" xml:space="preserve">
<style type="text/css">
	.st0{fill:#FFFFFF;}
</style>
<path class="st0" d="M493.8,364.4c-0.6,0-1.3-0.1-1.9-0.2c-0.6-0.1-1.3-0.3-1.9-0.6c-0.6-0.2-1.2-0.6-1.7-0.9
	c-0.6-0.4-1.1-0.8-1.5-1.2c-1.9-1.9-2.9-4.4-2.9-7.1c0-0.6,0.1-1.3,0.2-2c0.1-0.6,0.3-1.3,0.6-1.9c0.2-0.6,0.6-1.2,0.9-1.7
	c0.4-0.6,0.8-1.1,1.2-1.5s1-0.9,1.5-1.2c0.5-0.4,1.1-0.7,1.7-0.9c0.6-0.2,1.2-0.4,1.9-0.6c1.3-0.3,2.6-0.3,3.9,0
	c0.6,0.1,1.3,0.3,1.9,0.6c0.6,0.2,1.2,0.6,1.7,0.9c0.6,0.4,1.1,0.8,1.5,1.2s0.9,1,1.2,1.5c0.4,0.5,0.7,1.1,0.9,1.7
	c0.2,0.6,0.4,1.2,0.6,1.9c0.1,0.7,0.2,1.3,0.2,2c0,2.6-1.1,5.2-2.9,7.1c-0.5,0.5-1,0.9-1.5,1.2c-0.5,0.4-1.1,0.7-1.7,0.9
	c-0.6,0.2-1.2,0.4-1.9,0.6C495.1,364.3,494.4,364.4,493.8,364.4z"/>
<path class="st0" d="M20,364.4c-2.6,0-5.2-1.1-7.1-2.9c-0.5-0.5-0.9-1-1.2-1.5c-0.4-0.5-0.7-1.1-0.9-1.7c-0.2-0.6-0.4-1.2-0.6-1.9
	c-0.1-0.6-0.2-1.3-0.2-1.9s0.1-1.3,0.2-2c0.1-0.6,0.3-1.3,0.6-1.9c0.2-0.6,0.6-1.2,0.9-1.7c0.4-0.6,0.8-1.1,1.2-1.5s1-0.9,1.5-1.2
	c0.5-0.4,1.1-0.7,1.7-0.9c0.6-0.2,1.2-0.4,1.9-0.6c1.3-0.3,2.6-0.3,3.9,0c0.6,0.1,1.3,0.3,1.9,0.6c0.6,0.2,1.2,0.6,1.7,0.9
	c0.6,0.4,1.1,0.8,1.5,1.2s0.9,1,1.2,1.5c0.4,0.5,0.7,1.1,0.9,1.7c0.2,0.6,0.4,1.2,0.6,1.9c0.1,0.7,0.2,1.3,0.2,2s-0.1,1.3-0.2,1.9
	c-0.1,0.6-0.3,1.3-0.6,1.9c-0.2,0.6-0.6,1.2-0.9,1.7c-0.4,0.6-0.8,1.1-1.2,1.5s-1,0.9-1.5,1.2c-0.5,0.4-1.1,0.7-1.7,0.9
	c-0.6,0.2-1.2,0.4-1.9,0.6C21.3,364.3,20.6,364.4,20,364.4z"/>
<path class="st0" d="M450.5,344.4h-59.6l-67.6-137.2c4.6-9.6,7.2-20.4,7.2-31.7c0-31.3-19.7-58.1-47.4-68.7V85.5h1.3
	c5.5,0,10-4.5,10-10V10c0-5.5-4.5-10-10-10h-55c-5.5,0-10,4.5-10,10v65.5c0,5.5,4.5,10,10,10h1.3v21.2
	c-27.7,10.6-47.4,37.4-47.4,68.7c0,11.3,2.6,22.1,7.2,31.7l-67.6,137.3H63.3c-5.5,0-10,4.5-10,10s4.5,10,10,10h49.8l-18.7,37.9
	c-6.4,13-7.3,27.8-2.6,41.5c3.6,10.5,10.2,19.5,19,26l-13.6,27.8c-2.4,5-0.4,10.9,4.6,13.4c1.4,0.7,2.9,1,4.4,1c3.7,0,7.3-2.1,9-5.6
	l69.8-142h40.8v3.3c0,17.2,14,31.2,31.2,31.2c17.2,0,31.2-14,31.2-31.2v-3.3h40.8l69.8,142c1.7,3.5,5.3,5.6,9,5.6c1.5,0,3-0.3,4.4-1
	c5-2.4,7-8.4,4.6-13.4L403,469.8c8.8-6.5,15.4-15.5,19-26c4.7-13.7,3.8-28.5-2.6-41.6l-18.7-37.9h49.8c5.5,0,10-4.5,10-10
	S456,344.4,450.5,344.4z M239.4,20h35v45.5h-35V20z M263.1,85.5v16.7c-2-0.2-4.1-0.3-6.2-0.3c-2.1,0-4.1,0.1-6.2,0.3V85.5H263.1z
	 M256.9,121.9c29.5,0,53.6,24,53.6,53.5c0,29.5-24,53.5-53.6,53.5s-53.6-24-53.6-53.5C203.3,145.9,227.4,121.9,256.9,121.9z
	 M119.8,451.4c-4.1-3.8-7.2-8.6-9.1-14c-3-8.7-2.4-18,1.6-26.2L203.5,226c5.7,6,12.4,11.1,19.9,14.9L119.8,451.4z M268.1,367.7
	c0,6.2-5,11.2-11.2,11.2c-6.2,0-11.2-5-11.2-11.2V341c0-6.2,5-11.2,11.2-11.2c6.2,0,11.2,5,11.2,11.2V367.7z M288.1,344.4V341
	c0-17.2-14-31.2-31.2-31.2c-17.2,0-31.2,14-31.2,31.2v3.3h-31l47.6-96.8c4.7,0.9,9.5,1.4,14.5,1.4s9.8-0.5,14.5-1.4l47.6,96.8H288.1
	z M401.4,411.1c4,8.2,4.6,17.6,1.6,26.3c-1.9,5.4-5,10.2-9.1,14L290.4,240.9c7.4-3.8,14.1-8.9,19.9-14.9L401.4,411.1z"/>
<path class="st0" d="M242,185.4h4.9v4.9c0,5.5,4.5,10,10,10s10-4.5,10-10v-4.9h4.9c5.5,0,10-4.5,10-10s-4.5-10-10-10h-4.9v-4.9
	c0-5.5-4.5-10-10-10s-10,4.5-10,10v4.9H242c-5.5,0-10,4.5-10,10S236.5,185.4,242,185.4z"/>
</svg>
