<?xml version="1.0" encoding="utf-8"?>
<!-- Generator: Adobe Illustrator 21.0.0, SVG Export Plug-In . SVG Version: 6.00 Build 0)  -->
<svg version="1.1" id="Capa_1" xmlns="http://www.w3.org/2000/svg" xmlns:xlink="http://www.w3.org/1999/xlink" x="0px" y="0px"
	 viewBox="0 0 512 512" style="enable-background:new 0 0 512 512;" xml:space="preserve">
<style type="text/css">
	.st0{fill:#FFFFFF;}
</style>
<g>
	<g>
		<path class="st0" d="M378.5,429V236.5c0-79.7-62.3-145.1-140.7-150.2C235.2,60.9,213.7,41,187.7,41c-5.5,0-10,4.5-10,10v56.6
			L83.2,230.8c-3.1,4-2.7,9.6,0.9,13.1l42.5,42.6c3.3,3.3,8.5,3.9,12.5,1.3l33.9-21.8H209c2.3,0,4.7-0.1,7-0.4v21.8
			c0,33-19.1,63.6-48.7,78.1c-3.4,1.7-5.6,5.2-5.6,9v53.6c-27.8,1.9-49.8,25.1-49.8,53.4V502c0,5.5,4.5,10,10,10H412
			c5.5,0,10-4.5,10-10v-20.5C422,455.4,403.2,433.6,378.5,429z M181.7,380.6c15.5-8.8,28.6-21.3,38.1-36.5
			c10.6-17,16.2-36.6,16.2-56.6v-28.2c0.1-0.1,0.2-0.1,0.3-0.2c18.4-10,29.8-29.2,29.8-50.2v-6.5c0-5.5-4.5-10-10-10s-10,4.5-10,10
			v6.5c0,13.6-7.4,26.1-19.4,32.6c-5.4,3-11.6,4.5-17.8,4.5h-39c-1.9,0-3.8,0.6-5.4,1.6l-29.5,19L104.4,236l91.2-118.9
			c1.3-1.7,2.1-3.9,2.1-6.1V62.7c11.9,4.1,20.4,15.4,20.4,28.7v3.6c-0.2,2.3,0.3,4.6,1.6,6.5l0.1,0.1c2.1,3.2,5.9,4.9,9.6,4.5
			c71.4,0.7,129.2,59,129.2,130.5V428h-28v-75c0-5.5-4.5-10-10-10s-10,4.5-10,10v75H181.7V380.6z M402,492H131.9v-10.5
			c0-18.5,15-33.5,33.5-33.5h203.1c18.5,0,33.5,15,33.5,33.5V492z"/>
	</g>
</g>
<g>
	<g>
		<path class="st0" d="M218.1,163.5c-1.9-1.9-4.4-2.9-7.1-2.9s-5.2,1.1-7.1,2.9s-2.9,4.4-2.9,7.1c0,2.6,1.1,5.2,2.9,7.1
			c1.9,1.9,4.4,2.9,7.1,2.9c2.6,0,5.2-1.1,7.1-2.9c1.9-1.9,2.9-4.4,2.9-7.1C221.1,167.9,220,165.4,218.1,163.5z"/>
	</g>
</g>
<g>
	<g>
		<path class="st0" d="M414.4,65.6C372.1,23.3,315.8,0,256,0S139.9,23.3,97.6,65.6S32,164.2,32,224c0,35.9,8.2,70.2,24.5,102
			c4.1,8.1,8.8,16,13.9,23.6c3.1,4.6,9.3,5.8,13.9,2.7c4.6-3.1,5.8-9.3,2.7-13.9c-4.7-6.9-8.9-14.1-12.7-21.5
			C59.5,287.9,52,256.7,52,224c0-112.5,91.5-204,204-204s204,91.5,204,204c0,32-7.2,62.7-21.4,91.1c-6.9,13.8-15.4,26.8-25.2,38.7
			c-3.5,4.3-2.9,10.6,1.3,14.1c1.9,1.5,4.1,2.3,6.4,2.3c2.9,0,5.7-1.2,7.7-3.6c10.8-13.1,20.1-27.4,27.7-42.5
			C472.1,292.8,480,259.2,480,224C480,164.2,456.7,107.9,414.4,65.6z"/>
	</g>
</g>
<g>
	<g>
		<path class="st0" d="M107.3,363.7L107.3,363.7c-3.8-4.1-10.2-4.4-14.2-0.6c-4,3.8-4.3,10.1-0.5,14.1c0,0,0.1,0.1,0.1,0.1
			c2,2.1,4.6,3.2,7.3,3.2c2.4,0,4.9-0.9,6.8-2.7C110.8,374.1,111.1,367.7,107.3,363.7z"/>
	</g>
</g>
<g>
	<g>
		<path class="st0" d="M327.6,312.5c-1.9-1.9-4.4-2.9-7.1-2.9s-5.2,1.1-7.1,2.9c-1.9,1.9-2.9,4.4-2.9,7.1c0,2.6,1.1,5.2,2.9,7.1
			c1.9,1.9,4.4,2.9,7.1,2.9s5.2-1.1,7.1-2.9c1.9-1.9,2.9-4.4,2.9-7.1C330.5,316.9,329.4,314.4,327.6,312.5z"/>
	</g>
</g>
</svg>
